<svg width="78" height="16" viewBox="0 0 78 16" fill="none" xmlns="http://www.w3.org/2000/svg">
<path d="M70.0303 9.13982H75.1604C75.0977 7.92675 73.8798 6.92282 72.6894 6.92282C71.4362 6.92282 70.2392 7.82217 70.0303 9.13982ZM77.9876 11.1268H70.0303C70.093 12.6117 71.3109 13.5947 72.8147 13.5947C73.671 13.5947 74.868 13.1974 75.2022 12.4026H77.7997C77.1522 14.9124 75.1956 16 72.7729 16C69.2433 16 67.2031 13.8666 67.2031 10.2274C67.2031 6.9019 69.4939 4.51758 72.6894 4.51758C76.574 4.51758 78.1547 7.4457 77.9876 11.1268Z" fill="white"/>
<path d="M67.1385 4.8313L63.5045 15.6863H59.411L55.7979 4.8313H59.4945L61.4786 12.0052H61.5204L63.5254 4.8313H67.1385Z" fill="white"/>
<path d="M50.9961 15.6863V4.8313H54.5466V15.6863H50.9961Z" fill="white"/>
<path d="M44.8164 15.6863V0.75293H48.3669V15.6863H44.8164Z" fill="white"/>
<path d="M36.1251 4.89413L34.4334 10.1229H37.8168L36.1669 4.89413H36.1251ZM28.6064 15.6863L34.1828 0.75293H38.1301L43.7065 15.6863H39.6547L38.7358 13.0092H33.5354L32.5955 15.6863H28.6064Z" fill="#F49C3D"/>
<path d="M23.9307 15.6863V0.75293H27.4812V15.6863H23.9307Z" fill="white"/>
<path d="M14.6085 9.13982H19.7385C19.6759 7.92675 18.4579 6.92282 17.2675 6.92282C16.0144 6.92282 14.8173 7.82217 14.6085 9.13982ZM22.5657 11.1268H14.6085C14.6711 12.6117 15.8891 13.5947 17.3928 13.5947C18.2491 13.5947 19.4461 13.1974 19.7803 12.4026H22.3778C21.7303 14.9124 19.7737 16 17.351 16C13.8214 16 11.7812 13.8666 11.7812 10.2274C11.7812 6.9019 14.072 4.51758 17.2675 4.51758C21.1521 4.51758 22.7328 7.4457 22.5657 11.1268Z" fill="white"/>
<path d="M14.1379 0.75293V3.91827H9.68935V15.6863H5.80469V3.91827H2.26022L0 0.75293H14.1379Z" fill="white"/>
<path d="M52.7116 3.98369H52.8867C53.9868 3.98369 54.8785 3.09191 54.8785 1.99184C54.8785 0.891779 53.9868 0 52.8867 0H52.7116C51.6115 0 50.7197 0.891779 50.7197 1.99184C50.7197 3.09191 51.6115 3.98369 52.7116 3.98369Z" fill="#F49C3D"/>
</svg>
